<?xml version="1.0" encoding="UTF-8" standalone="no"?>
<!-- Created with Inkscape (http://www.inkscape.org/) -->

<svg
   width="21.728571mm"
   height="28.209017mm"
   viewBox="0 0 21.728571 28.209017"
   version="1.1"
   id="svg177"
   inkscape:version="1.1.1 (eb90963e84, 2021-10-02)"
   sodipodi:docname="logo_clea2.svg"
   xmlns:inkscape="http://www.inkscape.org/namespaces/inkscape"
   xmlns:sodipodi="http://sodipodi.sourceforge.net/DTD/sodipodi-0.dtd"
   xmlns="http://www.w3.org/2000/svg"
   xmlns:svg="http://www.w3.org/2000/svg">
  <sodipodi:namedview
     id="namedview179"
     pagecolor="#ffffff"
     bordercolor="#666666"
     borderopacity="1.0"
     inkscape:pageshadow="2"
     inkscape:pageopacity="0.0"
     inkscape:pagecheckerboard="false"
     inkscape:document-units="mm"
     showgrid="false"
     fit-margin-top="0"
     fit-margin-left="0"
     fit-margin-right="0"
     fit-margin-bottom="0"
     inkscape:zoom="11.313709"
     inkscape:cx="22.848388"
     inkscape:cy="41.100582"
     inkscape:window-width="1920"
     inkscape:window-height="1043"
     inkscape:window-x="1920"
     inkscape:window-y="0"
     inkscape:window-maximized="1"
     inkscape:current-layer="layer1" />
  <defs
     id="defs174" />
  <g
     inkscape:label="Layer 1"
     inkscape:groupmode="layer"
     id="layer1"
     transform="translate(-2.6468428,-1.7508436)">
    <path
       style="fill:#bdc0af;fill-opacity:1;stroke:#000000;stroke-width:0.00259843;stroke-opacity:0.00120874"
       d="m 60.815756,25.091797 c 0.0032,-0.0032 0.108398,-0.007 0.233723,-0.0083 0.280694,-0.003 0.53437,-0.007 0.825521,-0.01297 0.122461,-0.0025 0.314062,-0.0061 0.425781,-0.008 0.111719,-0.0019 0.303321,-0.0054 0.425781,-0.0078 0.122461,-0.0024 0.317579,-0.006 0.433594,-0.008 0.116016,-0.002 0.30586,-0.0055 0.421875,-0.0077 0.116016,-0.0022 0.302344,-0.0056 0.414063,-0.0076 0.111718,-0.002 0.30332,-0.0055 0.425781,-0.0079 0.122461,-0.0023 0.319336,-0.0059 0.4375,-0.008 0.280704,-0.0049 0.569736,-0.01015 0.835937,-0.01517 0.50781,-0.0096 0.647983,-0.01138 0.840768,-0.0108 0.146491,4.4e-4 0.205622,-0.0019 0.209627,-0.0084 0.0041,-0.0067 0.06135,-0.0076 0.221017,-0.0036 0.163626,0.0041 0.21408,0.0033 0.209791,-0.0037 -0.0043,-0.0069 0.04976,-0.0082 0.223372,-0.0054 0.131626,0.0021 0.219052,8.9e-4 0.205582,-0.0029 -0.01365,-0.0039 0.08092,-0.0056 0.226562,-0.0042 0.154969,0.0015 0.235152,-1.18e-4 0.210938,-0.0042 -0.02472,-0.0042 0.004,-0.0049 0.07813,-0.0019 0.06445,0.0026 0.153222,0.0038 0.197265,0.0027 l 0.08008,-0.0021 v 0.06314 0.06314 l -0.279296,0.0018 -0.279297,0.0018 0.269531,0.0042 c 0.148242,0.0023 -1.433496,0.005 -3.514974,0.006 -2.081478,9.9e-4 -3.781868,-8.37e-4 -3.778645,-0.0041 z m 4.20599,-0.02331 c -0.02027,-0.0016 -0.05542,-0.0016 -0.07813,-3.7e-5 -0.0227,0.0016 -0.0061,0.0029 0.03685,0.0029 0.04297,2e-5 0.06154,-0.0013 0.04128,-0.0029 z m 1.993879,-0.02078 c 0,-0.03292 -0.0077,-0.03615 -0.08462,-0.03544 -0.04322,3.96e-4 -0.05556,0.0026 -0.04428,0.0078 0.01,0.0046 -0.0352,0.006 -0.125,0.0037 -0.09096,-0.0023 -0.133727,-10e-4 -0.121094,0.0036 0.01261,0.0047 -0.03166,0.006 -0.125,0.0036 -0.09819,-0.0024 -0.139521,-0.0011 -0.128906,0.0041 0.01061,0.0052 -0.03206,0.0066 -0.132813,0.0041 -0.09746,-0.0024 -0.141729,-0.0011 -0.128906,0.0038 0.01272,0.0048 -0.03493,0.0059 -0.136719,0.0033 -0.115632,-0.003 -0.153203,-0.0018 -0.144531,0.0046 0.0087,0.0064 -0.03114,0.0074 -0.152344,0.0039 -0.121689,-0.0035 -0.161036,-0.0025 -0.152344,0.0039 0.0087,0.0065 -0.03065,0.0075 -0.152343,0.004 -0.112693,-0.0033 -0.160393,-0.0023 -0.152344,0.0032 0.0078,0.0053 0.307365,0.008 0.896484,0.0081 l 0.884766,1.2e-4 z m 0.181641,-0.04171 c -0.01826,-0.0016 -0.04815,-0.0016 -0.06641,0 -0.01826,0.0016 -0.0033,0.003 0.0332,0.003 0.03652,0 0.05146,-0.0013 0.0332,-0.003 z m 0.206857,-0.0078 c -0.01621,-0.0017 -0.04082,-0.0017 -0.05469,6.3e-5 -0.01387,0.0017 -6.07e-4,0.0031 0.02947,0.0031 0.03008,-3.5e-5 0.04143,-0.0014 0.02522,-0.0031 z m 0.203439,-0.0077 c -0.01174,-0.0018 -0.03283,-0.0018 -0.04687,-8e-5 -0.01404,0.0017 -0.0044,0.0032 0.02134,0.0032 0.02578,4.4e-5 0.03727,-0.0014 0.02553,-0.0032 z m 0.191374,-0.0077 c -0.0096,-0.0019 -0.02719,-0.0019 -0.03906,-1.07e-4 -0.01188,0.0018 -0.004,0.0033 0.01747,0.0034 0.02148,5.8e-5 0.0312,-0.0014 0.02159,-0.0033 z m 0.171767,-0.0078 c -0.0097,-0.0019 -0.02549,-0.0019 -0.03516,0 -0.0097,0.0019 -0.0018,0.0034 0.01758,0.0034 0.01934,0 0.02725,-0.0015 0.01758,-0.0034 z m 0.167969,-0.0077 c -0.0075,-0.002 -0.01982,-0.002 -0.02734,0 -0.0075,0.002 -0.0014,0.0036 0.01367,0.0036 0.01504,0 0.02119,-0.0016 0.01367,-0.0036 z"
       id="path2689"
       transform="matrix(0.26458333,0,0,0.26458333,2.6468428,1.7508436)" />
    <path
       style="fill:#bdc0af;fill-opacity:1;stroke:#000000;stroke-width:0.00259843;stroke-opacity:0.00120874"
       d="m 70.476562,25.089428 c -0.380273,-0.0028 -1.31455,-0.0056 -2.076171,-0.0063 l -1.384766,-0.0011 v -0.03058 -0.03058 l 0.05664,-0.0043 c 0.03115,-0.0024 0.211328,-0.0099 0.40039,-0.01665 0.31714,-0.01135 0.64137,-0.026 0.902344,-0.04078 l 0.105469,-0.006 -0.06641,-0.0049 c -0.05035,-0.0037 -0.04274,-0.0043 0.03149,-0.0023 0.09016,0.0024 0.270014,-0.0086 0.452889,-0.02776 0.370462,-0.03874 0.937253,-0.06035 1.781892,-0.06792 l 0.57486,-0.0052 0.05014,0.04568 c 0.02758,0.02513 0.08818,0.08195 0.134684,0.126269 l 0.08455,0.08058 -0.178295,-0.0016 c -0.09806,-8.56e-4 -0.489427,-0.0039 -0.869701,-0.0067 z"
       id="path2537"
       transform="matrix(0.26458333,0,0,0.26458333,2.6468428,1.7508436)" />
    <path
       inkscape:connector-curvature="0"
       id="UT"
       data-name="Utah"
       data-id="UT"
       d="m 14.523427,2.9329123 -6.7006799,-0.06969 -3.74432,-0.07024 -0.729949,-0.02708 -0.03822,0.835246 -0.189837,8.4291907 -0.332392,16.825796 -0.01278,0.831673 0.675512,0.0088 6.7078279,0.120555 4.696005,0.01429 8.720478,-0.136369 0.671936,-0.01664 -0.04206,-0.668364 -0.07891,-2.037672 -0.167299,-4.696415 -0.488836,-13.4427367 -0.01664,-0.67194 -0.515774,0.02062 -6.595793,0.123034 -1.009693,0.01224 -0.06117,-5.048468 0.0044,-0.337756 z"
       style="fill:#000000;fill-rule:evenodd;stroke:#000000;stroke-width:0.256813;stroke-linejoin:round;fill-opacity:0.01052844" />
    <path
       style="fill:#b3b300;fill-opacity:0;stroke-width:0.3325"
       d="m 12.830452,111.63962 -1.633294,-0.12674 0.223741,-17.18645 c 0.262567,-20.168962 0.75051,-44.008807 1.215565,-59.389948 0.182068,-6.021678 0.331032,-13.86371 0.331032,-17.426738 v -6.478232 l 10.02916,0.219868 c 5.516037,0.120927 15.428691,0.221079 22.028117,0.222561 l 11.998961,0.0027 0.04096,1.909181 c 0.02254,1.050049 0.151883,5.622873 0.287453,10.161832 l 0.246496,8.252651 14.342543,-0.08875 c 7.888397,-0.04881 14.674002,0.02396 15.079117,0.161711 0.491441,0.167104 0.793837,0.603854 0.908632,1.312341 0.275855,1.702464 2.234263,52.05844 2.720285,69.945823 l 0.22594,8.31542 -3.094919,0.21969 c -3.177997,0.22557 -72.014387,0.20085 -74.949786,-0.0269 z"
       id="path2086"
       transform="scale(0.26458333)" />
    <path
       style="fill:#b3b3ff;fill-opacity:0;stroke-width:0.3325"
       d="m 12.830452,111.63962 -1.633294,-0.12674 0.223741,-17.18645 c 0.262567,-20.168962 0.75051,-44.008807 1.215565,-59.389948 0.182068,-6.021678 0.331032,-13.86371 0.331032,-17.426738 v -6.478232 l 10.02916,0.219868 c 5.516037,0.120927 15.428691,0.221079 22.028117,0.222561 l 11.998961,0.0027 0.04096,1.909181 c 0.02254,1.050049 0.151883,5.622873 0.287453,10.161832 l 0.246496,8.252651 14.342543,-0.08875 c 7.888397,-0.04881 14.674002,0.02396 15.079117,0.161711 0.491441,0.167104 0.793837,0.603854 0.908632,1.312341 0.275855,1.702464 2.234263,52.05844 2.720285,69.945823 l 0.22594,8.31542 -3.094919,0.21969 c -3.177997,0.22557 -72.014387,0.20085 -74.949786,-0.0269 z"
       id="path2347"
       transform="scale(0.26458333)" />
    <text
       xml:space="preserve"
       style="font-style:normal;font-weight:normal;font-size:19.0606px;line-height:1.25;font-family:sans-serif;fill:#000000;fill-opacity:0;stroke:#000000;stroke-width:0.476516"
       x="5.0031672"
       y="15.866509"
       id="text7326"
       transform="scale(0.99102899,1.0090522)"><tspan
         sodipodi:role="line"
         id="tspan7324"
         style="font-style:normal;font-variant:normal;font-weight:normal;font-stretch:normal;font-family:'DejaVu Sans';-inkscape-font-specification:'DejaVu Sans';fill:#000000;stroke:#000000;stroke-width:0.476516;fill-opacity:0"
         x="5.0031672"
         y="15.866509">U</tspan></text>
    <text
       xml:space="preserve"
       style="font-style:normal;font-weight:normal;font-size:19.0606px;line-height:1.25;font-family:sans-serif;fill:#000000;fill-opacity:0;stroke:#000000;stroke-width:0.476516"
       x="9.584981"
       y="18.920481"
       id="text22046"
       transform="scale(0.99102899,1.0090522)"><tspan
         sodipodi:role="line"
         id="tspan22044"
         style="fill:#000000;stroke:#000000;stroke-width:0.476516;fill-opacity:0"
         x="9.584981"
         y="18.920481">C</tspan></text>
    <path
       style="fill:#bdc0af;fill-opacity:1;stroke:#000000;stroke-width:0.00129921;stroke-opacity:0.00120874"
       d="m 46.914062,53.024164 c 0,-0.0088 0.01402,-0.01832 0.12793,-0.08694 1.509988,-0.909648 2.817364,-2.022882 3.970138,-3.380581 0.29097,-0.342695 0.59037,-0.72938 0.866522,-1.119141 0.03501,-0.04941 0.06452,-0.09204 0.06558,-0.09473 0.0011,-0.0027 0.008,-0.0049 0.01537,-0.0049 h 0.01345 l -0.01716,0.02441 c -0.149721,0.212986 -0.25345,0.355954 -0.379068,0.522461 -1.185739,1.5717 -2.62481,2.88571 -4.315102,3.940103 -0.131768,0.0822 -0.330329,0.202521 -0.340887,0.206572 -0.0053,0.002 -0.0068,4.86e-4 -0.0068,-0.0073 z"
       id="path1997"
       transform="matrix(0.26458333,0,0,0.26458333,2.6468428,1.7508436)" />
    <path
       style="fill:#bdc0af;fill-opacity:1;stroke:#000000;stroke-width:0.00129921;stroke-opacity:0.00120874"
       d="M 53.863281,3.4980469 V 1.8300781 L 53.25293,1.829292 c -0.335694,-4.323e-4 -0.596289,-0.00131 -0.579102,-0.00196 0.06717,-0.00252 0.06419,-0.010048 -0.0052,-0.013108 -0.02722,-0.0012 0.237467,-0.00252 0.588199,-0.00293 l 0.637695,-7.467e-4 V 3.4882817 5.166016 h -0.01563 -0.01563 z"
       id="path3336"
       transform="matrix(0.26458333,0,0,0.26458333,2.6468428,1.7508436)" />
    <path
       style="fill:#bdc0af;fill-opacity:1;stroke:#000000;stroke-width:0.00259843;stroke-opacity:0.00120874"
       d=""
       id="path5335"
       transform="matrix(0.26458333,0,0,0.26458333,2.6468428,1.7508436)" />
    <path
       style="fill:#bdc0af;fill-opacity:1;stroke:#000000;stroke-width:0.00129921;stroke-opacity:0.00120874"
       d="m 16.032696,29.721861 c -0.0019,-0.124172 -0.0027,-0.332524 -0.0019,-0.463004 l 0.0015,-0.237236 -0.09915,-0.0011 -0.09915,-0.0011 0.09994,-9.06e-4 0.09994,-9.07e-4 0.0025,0.463626 c 0.0014,0.254994 0.0019,0.464255 0.0011,0.465025 -7.7e-4,7.7e-4 -0.0029,-0.100196 -0.0048,-0.224368 z"
       id="path6009"
       transform="matrix(0.26458333,0,0,0.26458333,2.6468428,1.7508436)" />
  </g>
</svg>
