<?xml version="1.0" encoding="UTF-8" standalone="no"?>
<!-- Created with Inkscape (http://www.inkscape.org/) -->

<svg
   width="21.728571mm"
   height="28.209017mm"
   viewBox="0 0 21.728571 28.209017"
   version="1.1"
   id="svg177"
   inkscape:version="1.1.1 (eb90963e84, 2021-10-02)"
   sodipodi:docname="logo.svg"
   xmlns:inkscape="http://www.inkscape.org/namespaces/inkscape"
   xmlns:sodipodi="http://sodipodi.sourceforge.net/DTD/sodipodi-0.dtd"
   xmlns="http://www.w3.org/2000/svg"
   xmlns:svg="http://www.w3.org/2000/svg">
  <sodipodi:namedview
     id="namedview179"
     pagecolor="#ffffff"
     bordercolor="#666666"
     borderopacity="1.0"
     inkscape:pageshadow="2"
     inkscape:pageopacity="0.0"
     inkscape:pagecheckerboard="false"
     inkscape:document-units="mm"
     showgrid="false"
     fit-margin-top="0"
     fit-margin-left="0"
     fit-margin-right="0"
     fit-margin-bottom="0"
     inkscape:zoom="3.0075196"
     inkscape:cx="-32.086241"
     inkscape:cy="120.69747"
     inkscape:window-width="1920"
     inkscape:window-height="1043"
     inkscape:window-x="1920"
     inkscape:window-y="0"
     inkscape:window-maximized="1"
     inkscape:current-layer="layer1" />
  <defs
     id="defs174" />
  <g
     inkscape:label="Layer 1"
     inkscape:groupmode="layer"
     id="layer1"
     transform="translate(-2.6468428,-1.7508436)">
    <path
       inkscape:connector-curvature="0"
       id="UT"
       data-name="Utah"
       data-id="UT"
       d="m 14.523427,2.9329123 -6.7006799,-0.06969 -3.74432,-0.07024 -0.729949,-0.02708 -0.03822,0.835246 -0.189837,8.4291907 -0.332392,16.825796 -0.01278,0.831673 0.675512,0.0088 6.7078279,0.120555 4.696005,0.01429 8.720478,-0.136369 0.671936,-0.01664 -0.04206,-0.668364 -0.07891,-2.037672 -0.167299,-4.696415 -0.488836,-13.4427367 -0.01664,-0.67194 -0.515774,0.02062 -6.595793,0.123034 -1.009693,0.01224 -0.06117,-5.048468 0.0044,-0.337756 z"
       style="fill:#f9f9f9;fill-rule:evenodd;stroke:#000000;stroke-width:0.256813;stroke-linejoin:round" />
    <path
       style="fill:#b3b3b3;fill-opacity:1;stroke-width:0.3325"
       d="m 24.319284,111.8518 c -7.106388,-0.14295 -12.990514,-0.32973 -13.075836,-0.41505 -0.226171,-0.22617 1.794402,-99.954671 2.030335,-100.210316 0.112349,-0.121735 43.488935,0.537962 43.614284,0.663313 0.06096,0.06096 0.215261,4.569212 0.342891,10.018338 0.162436,6.935209 0.346116,9.951271 0.612252,10.053397 0.209109,0.08024 7.030425,0.0081 15.158481,-0.160429 8.128057,-0.168478 14.835887,-0.252786 14.906294,-0.187351 0.15268,0.141905 3.061985,79.687108 2.919695,79.829398 -0.188724,0.18872 -36.366925,0.76651 -44.942693,0.71776 -4.754748,-0.027 -14.459315,-0.1661 -21.565703,-0.30906 z"
       id="path231"
       transform="scale(0.26458333)" />
    <path
       style="fill:#b3b300;fill-opacity:1;stroke-width:0.3325"
       d="m 21.279994,111.90321 c -5.394811,-0.12013 -9.829784,-0.24791 -9.855495,-0.28396 -0.415014,-0.58182 0.27491,-44.333299 1.269899,-80.530509 0.233749,-8.503685 0.38778,-16.488967 0.34229,-17.745071 l -0.08271,-2.283827 15.551129,0.288827 c 8.553122,0.158855 18.468816,0.236642 22.034878,0.172861 l 6.483748,-0.115966 0.119434,5.269714 c 0.06569,2.898343 0.215314,7.499727 0.3325,10.225298 l 0.213066,4.955583 9.642497,-0.05896 c 5.303374,-0.03243 10.494824,-0.148702 11.536553,-0.258391 1.041732,-0.109689 3.460314,-0.09268 5.374622,0.0378 4.13452,0.281809 3.841162,-0.16283 4.04661,6.133417 0.0751,2.301727 0.216105,6.130083 0.313335,8.507457 0.09723,2.377374 0.24995,6.117998 0.339376,8.312498 0.523917,12.856913 1.971841,53.639509 1.968043,55.432439 -0.0013,0.67922 -0.120301,1.35253 -0.264144,1.49625 -0.30582,0.30554 -3.321784,0.35055 -35.450641,0.52904 -13.258434,0.0737 -28.52018,0.0356 -33.914991,-0.0845 z"
       id="path1825"
       transform="scale(0.26458333)" />
    <path
       style="fill:#b3b300;fill-opacity:0;stroke-width:0.3325"
       d="m 12.830452,111.63962 -1.633294,-0.12674 0.223741,-17.18645 c 0.262567,-20.168962 0.75051,-44.008807 1.215565,-59.389948 0.182068,-6.021678 0.331032,-13.86371 0.331032,-17.426738 v -6.478232 l 10.02916,0.219868 c 5.516037,0.120927 15.428691,0.221079 22.028117,0.222561 l 11.998961,0.0027 0.04096,1.909181 c 0.02254,1.050049 0.151883,5.622873 0.287453,10.161832 l 0.246496,8.252651 14.342543,-0.08875 c 7.888397,-0.04881 14.674002,0.02396 15.079117,0.161711 0.491441,0.167104 0.793837,0.603854 0.908632,1.312341 0.275855,1.702464 2.234263,52.05844 2.720285,69.945823 l 0.22594,8.31542 -3.094919,0.21969 c -3.177997,0.22557 -72.014387,0.20085 -74.949786,-0.0269 z"
       id="path2086"
       transform="scale(0.26458333)" />
    <path
       style="fill:#b3b3ff;fill-opacity:0;stroke-width:0.3325"
       d="m 12.830452,111.63962 -1.633294,-0.12674 0.223741,-17.18645 c 0.262567,-20.168962 0.75051,-44.008807 1.215565,-59.389948 0.182068,-6.021678 0.331032,-13.86371 0.331032,-17.426738 v -6.478232 l 10.02916,0.219868 c 5.516037,0.120927 15.428691,0.221079 22.028117,0.222561 l 11.998961,0.0027 0.04096,1.909181 c 0.02254,1.050049 0.151883,5.622873 0.287453,10.161832 l 0.246496,8.252651 14.342543,-0.08875 c 7.888397,-0.04881 14.674002,0.02396 15.079117,0.161711 0.491441,0.167104 0.793837,0.603854 0.908632,1.312341 0.275855,1.702464 2.234263,52.05844 2.720285,69.945823 l 0.22594,8.31542 -3.094919,0.21969 c -3.177997,0.22557 -72.014387,0.20085 -74.949786,-0.0269 z"
       id="path2347"
       transform="scale(0.26458333)" />
    <path
       style="fill:#b3b3ff;fill-opacity:1;stroke-width:0.3325"
       d="m 12.830452,111.63962 -1.633294,-0.12674 0.223741,-17.18645 c 0.262567,-20.168962 0.75051,-44.008807 1.215565,-59.389948 0.182068,-6.021678 0.331032,-13.86371 0.331032,-17.426738 v -6.478232 l 10.02916,0.219868 c 5.516037,0.120927 15.428691,0.221079 22.028117,0.222561 l 11.998961,0.0027 0.04096,1.909181 c 0.02254,1.050049 0.151883,5.622873 0.287453,10.161832 l 0.246496,8.252651 14.342543,-0.08875 c 7.888397,-0.04881 14.674002,0.02396 15.079117,0.161711 0.491441,0.167104 0.793837,0.603854 0.908632,1.312341 0.275855,1.702464 2.234263,52.05844 2.720285,69.945823 l 0.22594,8.31542 -3.094919,0.21969 c -3.177997,0.22557 -72.014387,0.20085 -74.949786,-0.0269 z"
       id="path2719"
       transform="scale(0.26458333)" />
    <path
       style="fill:#feffff;fill-opacity:1;fill-rule:nonzero;stroke-width:0.332598;stroke-miterlimit:4;stroke-dasharray:none"
       d="m 17.788745,111.56692 -6.649998,-0.17945 v -2.66 c 0,-1.463 0.115199,-8.645 0.255997,-15.959996 0.703624,-36.555804 0.945869,-47.763312 1.245935,-57.643422 0.17975,-5.918515 0.326817,-13.760584 0.326817,-17.426821 v -6.665886 l 10.527971,0.219951 c 5.790383,0.120973 15.723574,0.219951 22.073758,0.219951 h 11.545787 l 0.03608,3.906874 c 0.01985,2.14878 0.133319,6.712342 0.252161,10.141247 l 0.216078,6.234373 h 14.70711 c 12.573231,0 14.766311,0.07134 15.115156,0.49167 0.250785,0.302179 0.518098,2.448642 0.693592,5.569374 0.536229,9.535646 2.058769,49.266229 2.515943,65.653405 l 0.224321,8.04071 -3.625864,0.12496 c -5.539589,0.19092 -61.91861,0.13658 -69.460847,-0.0669 z"
       id="path3313"
       transform="scale(0.26458333)" />
    <text
       xml:space="preserve"
       style="font-style:normal;font-weight:normal;font-size:19.0606px;line-height:1.25;font-family:sans-serif;fill:#ffffff;fill-opacity:1;stroke:#000000;stroke-width:0.476516"
       x="5.0031672"
       y="15.866509"
       id="text7326"
       transform="scale(0.99102899,1.0090522)"><tspan
         sodipodi:role="line"
         id="tspan7324"
         style="font-style:normal;font-variant:normal;font-weight:normal;font-stretch:normal;font-family:'DejaVu Sans';-inkscape-font-specification:'DejaVu Sans';fill:#ffffff;stroke:#000000;stroke-width:0.476516"
         x="5.0031672"
         y="15.866509">U</tspan></text>
    <text
       xml:space="preserve"
       style="font-style:normal;font-weight:normal;font-size:19.0606px;line-height:1.25;font-family:sans-serif;fill:#ffffff;fill-opacity:1;stroke:#000000;stroke-width:0.476516"
       x="9.584981"
       y="18.920481"
       id="text22046"
       transform="scale(0.99102899,1.0090522)"><tspan
         sodipodi:role="line"
         id="tspan22044"
         style="fill:#ffffff;stroke:#000000;stroke-width:0.476516"
         x="9.584981"
         y="18.920481">C</tspan></text>
  </g>
</svg>
